<?xml version="1.0" encoding="utf-8"?>
<!-- Generator: Adobe Illustrator 26.0.1, SVG Export Plug-In . SVG Version: 6.00 Build 0)  -->
<svg version="1.1" id="Layer_1" xmlns="http://www.w3.org/2000/svg" xmlns:xlink="http://www.w3.org/1999/xlink" x="0px" y="0px"
	 viewBox="0 0 48 48" style="enable-background:new 0 0 48 48;" xml:space="preserve">
<style type="text/css">
	.st0{fill:#00A551;}
	.st1{fill:#FFFDF3;}
</style>
<g>
	<path class="st0" d="M0,0h48v48H0V0z"/>
</g>
<path class="st1" d="M39,17.9c-0.8-1.9-1.9-3.7-3.4-5.2c-1.5-1.6-3.2-2.8-5.1-3.7c-2.1-1-4.3-1.5-6.6-1.4
	C15.2,7.7,8.1,14.7,7.9,23.3C7.8,32.3,15,39.7,24,39.7c2.4,0,3.6-1.1,4.2-2c0.9-1.5,1-3.5,0.5-5.7l6.7,8.4l2.4-1.9L25.2,22.7
	c-0.9-1.2-2-0.6-2.2-0.5c-0.5,0.3-0.9,1-0.6,1.9c0,0.1,0.1,0.2,0.1,0.4c0.1,0.2,0.2,0.5,0.4,0.8c0.6,1.3,1.7,3.6,2.4,5.8
	c1,3.3,0.6,4.6,0.3,4.9c-0.1,0.1-0.4,0.6-1.6,0.6c-7.2,0-13-5.8-13-13c0-7.2,5.8-13,13-13c3.5,0,6.8,1.5,9.4,4.2
	c2.4,2.5,3.7,5.8,3.6,8.7c-0.1,2.5-1.4,4.7-2.8,6.7l1.9,2.5c2.5-3.1,3.8-6,3.9-9C40.1,21.8,39.8,19.8,39,17.9z"/>
</svg>
